<?xml version="1.0" encoding="UTF-8" standalone="no"?>
<!DOCTYPE svg PUBLIC "-//W3C//DTD SVG 1.1//EN"
 "http://www.w3.org/Graphics/SVG/1.1/DTD/svg11.dtd">
<!-- Generated by graphviz version 2.43.0 (0)
 -->
<!-- Title: G Pages: 1 -->
<svg width="126pt" height="108pt"
 viewBox="0.00 0.00 126.00 108.00" xmlns="http://www.w3.org/2000/svg" xmlns:xlink="http://www.w3.org/1999/xlink">
<g id="graph0" class="graph" transform="scale(1 1) rotate(0) translate(4 104)">
<title>G</title>
<polygon fill="white" stroke="transparent" points="-4,4 -4,-104 122,-104 122,4 -4,4"/>
<text text-anchor="middle" x="59" y="-7.8" font-family="Times,serif" font-size="14.00">Automate vrai</text>
<!-- 0 -->
<g id="node1" class="node">
<title>0</title>
<ellipse fill="none" stroke="black" cx="79.3" cy="-45" rx="18" ry="18"/>
<ellipse fill="none" stroke="black" cx="79.3" cy="-45" rx="22" ry="22"/>
<text text-anchor="middle" x="79.3" y="-41.9" font-family="Times,serif" font-size="12.00">0</text>
</g>
<!-- 0&#45;&gt;0 -->
<g id="edge2" class="edge">
<title>0&#45;&gt;0</title>
<path fill="none" stroke="black" d="M71.98,-65.99C71.08,-76.09 73.52,-85 79.3,-85 83,-85 85.34,-81.34 86.3,-76.06"/>
<polygon fill="black" stroke="black" points="89.8,-76.1 86.62,-65.99 82.8,-75.87 89.8,-76.1"/>
<text text-anchor="middle" x="79.3" y="-88.8" font-family="Times,serif" font-size="14.00">*</text>
</g>
<!-- qi -->
<g id="node2" class="node">
<title>qi</title>
<ellipse fill="black" stroke="black" cx="18.5" cy="-45" rx="1.8" ry="1.8"/>
</g>
<!-- qi&#45;&gt;0 -->
<g id="edge1" class="edge">
<title>qi&#45;&gt;0</title>
<path fill="none" stroke="black" d="M20.52,-45C23.89,-45 35.14,-45 46.82,-45"/>
<polygon fill="black" stroke="black" points="47.01,-48.5 57.01,-45 47.01,-41.5 47.01,-48.5"/>
</g>
</g>
</svg>
