<?xml version="1.0" encoding="UTF-8" standalone="no"?>
<!DOCTYPE svg PUBLIC "-//W3C//DTD SVG 1.1//EN"
 "http://www.w3.org/Graphics/SVG/1.1/DTD/svg11.dtd">
<!-- Generated by graphviz version 2.43.0 (0)
 -->
<!-- Title: G Pages: 1 -->
<svg width="355pt" height="108pt"
 viewBox="0.00 0.00 354.60 108.00" xmlns="http://www.w3.org/2000/svg" xmlns:xlink="http://www.w3.org/1999/xlink">
<g id="graph0" class="graph" transform="scale(1 1) rotate(0) translate(4 104)">
<title>G</title>
<polygon fill="white" stroke="transparent" points="-4,4 -4,-104 350.6,-104 350.6,4 -4,4"/>
<text text-anchor="middle" x="173.3" y="-7.8" font-family="Times,serif" font-size="14.00">(a): ~(?msd_fib a=1)</text>
<!-- 0 -->
<g id="node1" class="node">
<title>0</title>
<ellipse fill="none" stroke="black" cx="62.6" cy="-45" rx="18" ry="18"/>
<ellipse fill="none" stroke="black" cx="62.6" cy="-45" rx="22" ry="22"/>
<text text-anchor="middle" x="62.6" y="-41.9" font-family="Times,serif" font-size="12.00">0</text>
</g>
<!-- 0&#45;&gt;0 -->
<g id="edge2" class="edge">
<title>0&#45;&gt;0</title>
<path fill="none" stroke="black" d="M55.28,-65.99C54.38,-76.09 56.82,-85 62.6,-85 66.3,-85 68.64,-81.34 69.6,-76.06"/>
<polygon fill="black" stroke="black" points="73.1,-76.1 69.92,-65.99 66.1,-75.87 73.1,-76.1"/>
<text text-anchor="middle" x="62.6" y="-88.8" font-family="Times,serif" font-size="14.00">0</text>
</g>
<!-- 1 -->
<g id="node2" class="node">
<title>1</title>
<ellipse fill="none" stroke="black" cx="148.6" cy="-45" rx="18" ry="18"/>
<text text-anchor="middle" x="148.6" y="-41.9" font-family="Times,serif" font-size="12.00">1</text>
</g>
<!-- 0&#45;&gt;1 -->
<g id="edge3" class="edge">
<title>0&#45;&gt;1</title>
<path fill="none" stroke="black" d="M84.8,-45C95.48,-45 108.56,-45 120.01,-45"/>
<polygon fill="black" stroke="black" points="120.37,-48.5 130.37,-45 120.37,-41.5 120.37,-48.5"/>
<text text-anchor="middle" x="107.6" y="-48.8" font-family="Times,serif" font-size="14.00">1</text>
</g>
<!-- 2 -->
<g id="node3" class="node">
<title>2</title>
<ellipse fill="none" stroke="black" cx="234.6" cy="-45" rx="18" ry="18"/>
<ellipse fill="none" stroke="black" cx="234.6" cy="-45" rx="22" ry="22"/>
<text text-anchor="middle" x="234.6" y="-41.9" font-family="Times,serif" font-size="12.00">2</text>
</g>
<!-- 1&#45;&gt;2 -->
<g id="edge4" class="edge">
<title>1&#45;&gt;2</title>
<path fill="none" stroke="black" d="M167,-45C177.19,-45 190.35,-45 202.28,-45"/>
<polygon fill="black" stroke="black" points="202.34,-48.5 212.34,-45 202.34,-41.5 202.34,-48.5"/>
<text text-anchor="middle" x="189.6" y="-48.8" font-family="Times,serif" font-size="14.00">0</text>
</g>
<!-- 2&#45;&gt;2 -->
<g id="edge5" class="edge">
<title>2&#45;&gt;2</title>
<path fill="none" stroke="black" d="M226.59,-65.58C225.49,-75.84 228.15,-85 234.6,-85 238.73,-85 241.31,-81.24 242.34,-75.84"/>
<polygon fill="black" stroke="black" points="245.84,-75.67 242.61,-65.58 238.85,-75.49 245.84,-75.67"/>
<text text-anchor="middle" x="234.6" y="-88.8" font-family="Times,serif" font-size="14.00">0</text>
</g>
<!-- 3 -->
<g id="node4" class="node">
<title>3</title>
<ellipse fill="none" stroke="black" cx="324.6" cy="-45" rx="18" ry="18"/>
<ellipse fill="none" stroke="black" cx="324.6" cy="-45" rx="22" ry="22"/>
<text text-anchor="middle" x="324.6" y="-41.9" font-family="Times,serif" font-size="12.00">3</text>
</g>
<!-- 2&#45;&gt;3 -->
<g id="edge6" class="edge">
<title>2&#45;&gt;3</title>
<path fill="none" stroke="black" d="M256.9,-45C267.5,-45 280.51,-45 292.21,-45"/>
<polygon fill="black" stroke="black" points="292.49,-48.5 302.49,-45 292.49,-41.5 292.49,-48.5"/>
<text text-anchor="middle" x="279.6" y="-48.8" font-family="Times,serif" font-size="14.00">1</text>
</g>
<!-- 3&#45;&gt;2 -->
<g id="edge7" class="edge">
<title>3&#45;&gt;2</title>
<path fill="none" stroke="black" d="M306.29,-32.78C297.08,-27.7 285.45,-23.5 274.6,-26 270.86,-26.86 267.06,-28.14 263.37,-29.62"/>
<polygon fill="black" stroke="black" points="261.64,-26.57 254,-33.92 264.55,-32.93 261.64,-26.57"/>
<text text-anchor="middle" x="279.6" y="-29.8" font-family="Times,serif" font-size="14.00">0</text>
</g>
<!-- qi -->
<g id="node5" class="node">
<title>qi</title>
<ellipse fill="black" stroke="black" cx="1.8" cy="-45" rx="1.8" ry="1.8"/>
</g>
<!-- qi&#45;&gt;0 -->
<g id="edge1" class="edge">
<title>qi&#45;&gt;0</title>
<path fill="none" stroke="black" d="M3.82,-45C7.19,-45 18.44,-45 30.12,-45"/>
<polygon fill="black" stroke="black" points="30.31,-48.5 40.31,-45 30.31,-41.5 30.31,-48.5"/>
</g>
</g>
</svg>
