<?xml version="1.0" encoding="UTF-8" standalone="no"?>
<!DOCTYPE svg PUBLIC "-//W3C//DTD SVG 1.1//EN"
 "http://www.w3.org/Graphics/SVG/1.1/DTD/svg11.dtd">
<!-- Generated by graphviz version 2.43.0 (0)
 -->
<!-- Title: G Pages: 1 -->
<svg width="267pt" height="108pt"
 viewBox="0.00 0.00 267.00 108.00" xmlns="http://www.w3.org/2000/svg" xmlns:xlink="http://www.w3.org/1999/xlink">
<g id="graph0" class="graph" transform="scale(1 1) rotate(0) translate(4 104)">
<title>G</title>
<polygon fill="white" stroke="transparent" points="-4,4 -4,-104 263,-104 263,4 -4,4"/>
<text text-anchor="middle" x="129.5" y="-7.8" font-family="Times,serif" font-size="14.00">(a): ?msd_fib a=1 complet inversé</text>
<!-- 0 -->
<g id="node1" class="node">
<title>0</title>
<ellipse fill="none" stroke="black" cx="65.3" cy="-45" rx="18" ry="18"/>
<ellipse fill="none" stroke="black" cx="65.3" cy="-45" rx="22" ry="22"/>
<text text-anchor="middle" x="65.3" y="-41.9" font-family="Times,serif" font-size="12.00">0</text>
</g>
<!-- 0&#45;&gt;0 -->
<g id="edge2" class="edge">
<title>0&#45;&gt;0</title>
<path fill="none" stroke="black" d="M57.98,-65.99C57.08,-76.09 59.52,-85 65.3,-85 69,-85 71.34,-81.34 72.3,-76.06"/>
<polygon fill="black" stroke="black" points="75.8,-76.1 72.62,-65.99 68.8,-75.87 75.8,-76.1"/>
<text text-anchor="middle" x="65.3" y="-88.8" font-family="Times,serif" font-size="14.00">0</text>
</g>
<!-- 1 -->
<g id="node2" class="node">
<title>1</title>
<ellipse fill="none" stroke="black" cx="151.3" cy="-45" rx="18" ry="18"/>
<text text-anchor="middle" x="151.3" y="-41.9" font-family="Times,serif" font-size="12.00">1</text>
</g>
<!-- 0&#45;&gt;1 -->
<g id="edge3" class="edge">
<title>0&#45;&gt;1</title>
<path fill="none" stroke="black" d="M87.5,-45C98.18,-45 111.26,-45 122.71,-45"/>
<polygon fill="black" stroke="black" points="123.07,-48.5 133.07,-45 123.07,-41.5 123.07,-48.5"/>
<text text-anchor="middle" x="110.3" y="-48.8" font-family="Times,serif" font-size="14.00">1</text>
</g>
<!-- 2 -->
<g id="node3" class="node">
<title>2</title>
<ellipse fill="none" stroke="black" cx="234.3" cy="-45" rx="18" ry="18"/>
<ellipse fill="none" stroke="black" cx="234.3" cy="-45" rx="22" ry="22"/>
<text text-anchor="middle" x="234.3" y="-41.9" font-family="Times,serif" font-size="12.00">2</text>
</g>
<!-- 1&#45;&gt;2 -->
<g id="edge4" class="edge">
<title>1&#45;&gt;2</title>
<path fill="none" stroke="black" d="M169.48,-45C178.91,-45 190.9,-45 201.94,-45"/>
<polygon fill="black" stroke="black" points="202.11,-48.5 212.11,-45 202.11,-41.5 202.11,-48.5"/>
<text text-anchor="middle" x="190.8" y="-48.8" font-family="Times,serif" font-size="14.00">*</text>
</g>
<!-- 2&#45;&gt;2 -->
<g id="edge5" class="edge">
<title>2&#45;&gt;2</title>
<path fill="none" stroke="black" d="M226.62,-65.99C225.67,-76.09 228.23,-85 234.3,-85 238.19,-85 240.64,-81.34 241.65,-76.06"/>
<polygon fill="black" stroke="black" points="245.15,-76.1 241.98,-65.99 238.15,-75.87 245.15,-76.1"/>
<text text-anchor="middle" x="234.3" y="-88.8" font-family="Times,serif" font-size="14.00">*</text>
</g>
<!-- qi -->
<g id="node4" class="node">
<title>qi</title>
<ellipse fill="black" stroke="black" cx="4.5" cy="-45" rx="1.8" ry="1.8"/>
</g>
<!-- qi&#45;&gt;0 -->
<g id="edge1" class="edge">
<title>qi&#45;&gt;0</title>
<path fill="none" stroke="black" d="M6.52,-45C9.89,-45 21.14,-45 32.82,-45"/>
<polygon fill="black" stroke="black" points="33.01,-48.5 43.01,-45 33.01,-41.5 33.01,-48.5"/>
</g>
</g>
</svg>
