<?xml version="1.0" encoding="UTF-8" standalone="no"?>
<!DOCTYPE svg PUBLIC "-//W3C//DTD SVG 1.1//EN"
 "http://www.w3.org/Graphics/SVG/1.1/DTD/svg11.dtd">
<!-- Generated by graphviz version 2.43.0 (0)
 -->
<!-- Title: G Pages: 1 -->
<svg width="153pt" height="123pt"
 viewBox="0.00 0.00 153.00 123.00" xmlns="http://www.w3.org/2000/svg" xmlns:xlink="http://www.w3.org/1999/xlink">
<g id="graph0" class="graph" transform="scale(1 1) rotate(0) translate(4 119)">
<title>G</title>
<polygon fill="white" stroke="transparent" points="-4,4 -4,-119 149,-119 149,4 -4,4"/>
<text text-anchor="middle" x="72.5" y="-7.8" font-family="Times,serif" font-size="14.00">(a,b): ?msd_2 a=b</text>
<!-- 0 -->
<g id="node1" class="node">
<title>0</title>
<ellipse fill="none" stroke="black" cx="92.8" cy="-45" rx="18" ry="18"/>
<ellipse fill="none" stroke="black" cx="92.8" cy="-45" rx="22" ry="22"/>
<text text-anchor="middle" x="92.8" y="-41.9" font-family="Times,serif" font-size="12.00">0</text>
</g>
<!-- 0&#45;&gt;0 -->
<g id="edge2" class="edge">
<title>0&#45;&gt;0</title>
<path fill="none" stroke="black" d="M85.48,-65.99C84.58,-76.09 87.02,-85 92.8,-85 96.5,-85 98.84,-81.34 99.8,-76.06"/>
<polygon fill="black" stroke="black" points="103.3,-76.1 100.12,-65.99 96.3,-75.87 103.3,-76.1"/>
<text text-anchor="middle" x="92.8" y="-103.8" font-family="Times,serif" font-size="14.00">[0,0]</text>
<text text-anchor="middle" x="92.8" y="-88.8" font-family="Times,serif" font-size="14.00">[1,1]</text>
</g>
<!-- qi -->
<g id="node2" class="node">
<title>qi</title>
<ellipse fill="black" stroke="black" cx="32" cy="-45" rx="1.8" ry="1.8"/>
</g>
<!-- qi&#45;&gt;0 -->
<g id="edge1" class="edge">
<title>qi&#45;&gt;0</title>
<path fill="none" stroke="black" d="M34.02,-45C37.39,-45 48.64,-45 60.32,-45"/>
<polygon fill="black" stroke="black" points="60.51,-48.5 70.51,-45 60.51,-41.5 60.51,-48.5"/>
</g>
</g>
</svg>
