<?xml version="1.0" encoding="UTF-8" standalone="no"?>
<!DOCTYPE svg PUBLIC "-//W3C//DTD SVG 1.1//EN"
 "http://www.w3.org/Graphics/SVG/1.1/DTD/svg11.dtd">
<!-- Generated by graphviz version 2.43.0 (0)
 -->
<!-- Title: G Pages: 1 -->
<svg width="225pt" height="138pt"
 viewBox="0.00 0.00 225.10 138.48" xmlns="http://www.w3.org/2000/svg" xmlns:xlink="http://www.w3.org/1999/xlink">
<g id="graph0" class="graph" transform="scale(1 1) rotate(0) translate(4 134.48)">
<title>G</title>
<polygon fill="white" stroke="transparent" points="-4,4 -4,-134.48 221.1,-134.48 221.1,4 -4,4"/>
<text text-anchor="middle" x="108.55" y="-7.8" font-family="Times,serif" font-size="14.00">(a,b,c): ?msd_2 a=b+c</text>
<!-- 0 -->
<g id="node1" class="node">
<title>0</title>
<ellipse fill="none" stroke="black" cx="63.1" cy="-45.48" rx="18" ry="18"/>
<ellipse fill="none" stroke="black" cx="63.1" cy="-45.48" rx="22" ry="22"/>
<text text-anchor="middle" x="63.1" y="-42.38" font-family="Times,serif" font-size="12.00">0</text>
</g>
<!-- 0&#45;&gt;0 -->
<g id="edge2" class="edge">
<title>0&#45;&gt;0</title>
<path fill="none" stroke="black" d="M55.78,-66.47C54.88,-76.57 57.32,-85.48 63.1,-85.48 66.8,-85.48 69.14,-81.82 70.1,-76.54"/>
<polygon fill="black" stroke="black" points="73.6,-76.58 70.42,-66.47 66.6,-76.36 73.6,-76.58"/>
<text text-anchor="middle" x="63.1" y="-119.28" font-family="Times,serif" font-size="14.00">[0,0,0]</text>
<text text-anchor="middle" x="63.1" y="-104.28" font-family="Times,serif" font-size="14.00">[1,0,1]</text>
<text text-anchor="middle" x="63.1" y="-89.28" font-family="Times,serif" font-size="14.00">[1,1,0] </text>
</g>
<!-- 1 -->
<g id="node2" class="node">
<title>1</title>
<ellipse fill="none" stroke="black" cx="191.1" cy="-45.48" rx="18" ry="18"/>
<text text-anchor="middle" x="191.1" y="-42.38" font-family="Times,serif" font-size="12.00">1</text>
</g>
<!-- 0&#45;&gt;1 -->
<g id="edge3" class="edge">
<title>0&#45;&gt;1</title>
<path fill="none" stroke="black" d="M85.19,-45.48C106.48,-45.48 139.45,-45.48 162.74,-45.48"/>
<polygon fill="black" stroke="black" points="162.99,-48.98 172.99,-45.48 162.99,-41.98 162.99,-48.98"/>
<text text-anchor="middle" x="127.1" y="-49.28" font-family="Times,serif" font-size="14.00">[1,0,0]</text>
</g>
<!-- 1&#45;&gt;0 -->
<g id="edge4" class="edge">
<title>1&#45;&gt;0</title>
<path fill="none" stroke="black" d="M175.3,-36.41C168.12,-32.53 159.21,-28.44 150.6,-26.48 130.23,-21.84 123.97,-21.84 103.6,-26.48 99.62,-27.39 95.58,-28.75 91.67,-30.33"/>
<polygon fill="black" stroke="black" points="89.99,-27.25 82.36,-34.6 92.91,-33.62 89.99,-27.25"/>
<text text-anchor="middle" x="127.1" y="-30.28" font-family="Times,serif" font-size="14.00">[0,1,1]</text>
</g>
<!-- 1&#45;&gt;1 -->
<g id="edge5" class="edge">
<title>1&#45;&gt;1</title>
<path fill="none" stroke="black" d="M180.39,-60.27C176.91,-70.9 180.48,-81.48 191.1,-81.48 198.24,-81.48 202.19,-76.71 202.96,-70.35"/>
<polygon fill="black" stroke="black" points="206.42,-69.81 201.81,-60.27 199.47,-70.61 206.42,-69.81"/>
<text text-anchor="middle" x="191.1" y="-115.28" font-family="Times,serif" font-size="14.00">[0,0,1]</text>
<text text-anchor="middle" x="191.1" y="-100.28" font-family="Times,serif" font-size="14.00">[0,1,0]</text>
<text text-anchor="middle" x="191.1" y="-85.28" font-family="Times,serif" font-size="14.00">[1,1,1] </text>
</g>
<!-- qi -->
<g id="node3" class="node">
<title>qi</title>
<ellipse fill="black" stroke="black" cx="1.8" cy="-45.48" rx="1.8" ry="1.8"/>
</g>
<!-- qi&#45;&gt;0 -->
<g id="edge1" class="edge">
<title>qi&#45;&gt;0</title>
<path fill="none" stroke="black" d="M3.83,-45.48C7.26,-45.48 18.73,-45.48 30.6,-45.48"/>
<polygon fill="black" stroke="black" points="30.94,-48.98 40.94,-45.48 30.94,-41.98 30.94,-48.98"/>
</g>
</g>
</svg>
