<?xml version="1.0" encoding="UTF-8" standalone="no"?>
<!DOCTYPE svg PUBLIC "-//W3C//DTD SVG 1.1//EN"
 "http://www.w3.org/Graphics/SVG/1.1/DTD/svg11.dtd">
<!-- Generated by graphviz version 2.43.0 (0)
 -->
<!-- Title: G Pages: 1 -->
<svg width="93pt" height="108pt"
 viewBox="0.00 0.00 92.60 108.00" xmlns="http://www.w3.org/2000/svg" xmlns:xlink="http://www.w3.org/1999/xlink">
<g id="graph0" class="graph" transform="scale(1 1) rotate(0) translate(4 104)">
<title>G</title>
<polygon fill="white" stroke="transparent" points="-4,4 -4,-104 88.6,-104 88.6,4 -4,4"/>
<text text-anchor="middle" x="42.3" y="-7.8" font-family="Times,serif" font-size="14.00">R_msd_2</text>
<!-- 0 -->
<g id="node1" class="node">
<title>0</title>
<ellipse fill="none" stroke="black" cx="62.6" cy="-45" rx="18" ry="18"/>
<ellipse fill="none" stroke="black" cx="62.6" cy="-45" rx="22" ry="22"/>
<text text-anchor="middle" x="62.6" y="-41.9" font-family="Times,serif" font-size="12.00">0</text>
</g>
<!-- 0&#45;&gt;0 -->
<g id="edge2" class="edge">
<title>0&#45;&gt;0</title>
<path fill="none" stroke="black" d="M55.28,-65.99C54.38,-76.09 56.82,-85 62.6,-85 66.3,-85 68.64,-81.34 69.6,-76.06"/>
<polygon fill="black" stroke="black" points="73.1,-76.1 69.92,-65.99 66.1,-75.87 73.1,-76.1"/>
<text text-anchor="middle" x="62.6" y="-88.8" font-family="Times,serif" font-size="14.00">*</text>
</g>
<!-- qi -->
<g id="node2" class="node">
<title>qi</title>
<ellipse fill="black" stroke="black" cx="1.8" cy="-45" rx="1.8" ry="1.8"/>
</g>
<!-- qi&#45;&gt;0 -->
<g id="edge1" class="edge">
<title>qi&#45;&gt;0</title>
<path fill="none" stroke="black" d="M3.82,-45C7.19,-45 18.44,-45 30.12,-45"/>
<polygon fill="black" stroke="black" points="30.31,-48.5 40.31,-45 30.31,-41.5 30.31,-48.5"/>
</g>
</g>
</svg>
