<?xml version="1.0" encoding="UTF-8" standalone="no"?>
<!DOCTYPE svg PUBLIC "-//W3C//DTD SVG 1.1//EN"
 "http://www.w3.org/Graphics/SVG/1.1/DTD/svg11.dtd">
<!-- Generated by graphviz version 2.43.0 (0)
 -->
<!-- Title: G Pages: 1 -->
<svg width="305pt" height="104pt"
 viewBox="0.00 0.00 304.60 104.00" xmlns="http://www.w3.org/2000/svg" xmlns:xlink="http://www.w3.org/1999/xlink">
<g id="graph0" class="graph" transform="scale(1 1) rotate(0) translate(4 100)">
<title>G</title>
<polygon fill="white" stroke="transparent" points="-4,4 -4,-100 300.6,-100 300.6,4 -4,4"/>
<text text-anchor="middle" x="148.3" y="-7.8" font-family="Times,serif" font-size="14.00">(a,b): a=1&amp;b=2</text>
<!-- 0 -->
<g id="node1" class="node">
<title>0</title>
<ellipse fill="none" stroke="black" cx="58.6" cy="-45" rx="18" ry="18"/>
<text text-anchor="middle" x="58.6" y="-41.9" font-family="Times,serif" font-size="12.00">0</text>
</g>
<!-- 0&#45;&gt;0 -->
<g id="edge2" class="edge">
<title>0&#45;&gt;0</title>
<path fill="none" stroke="black" d="M52.22,-62.04C50.92,-71.86 53.05,-81 58.6,-81 62.07,-81 64.2,-77.43 65,-72.35"/>
<polygon fill="black" stroke="black" points="68.5,-72.03 64.98,-62.04 61.5,-72.04 68.5,-72.03"/>
<text text-anchor="middle" x="58.6" y="-84.8" font-family="Times,serif" font-size="14.00">[0,0]</text>
</g>
<!-- 1 -->
<g id="node2" class="node">
<title>1</title>
<ellipse fill="none" stroke="black" cx="164.6" cy="-45" rx="18" ry="18"/>
<text text-anchor="middle" x="164.6" y="-41.9" font-family="Times,serif" font-size="12.00">1</text>
</g>
<!-- 0&#45;&gt;1 -->
<g id="edge3" class="edge">
<title>0&#45;&gt;1</title>
<path fill="none" stroke="black" d="M76.77,-45C92.96,-45 117.47,-45 136.33,-45"/>
<polygon fill="black" stroke="black" points="136.4,-48.5 146.4,-45 136.4,-41.5 136.4,-48.5"/>
<text text-anchor="middle" x="111.6" y="-48.8" font-family="Times,serif" font-size="14.00">[0,1]</text>
</g>
<!-- 2 -->
<g id="node3" class="node">
<title>2</title>
<ellipse fill="none" stroke="black" cx="274.6" cy="-45" rx="18" ry="18"/>
<ellipse fill="none" stroke="black" cx="274.6" cy="-45" rx="22" ry="22"/>
<text text-anchor="middle" x="274.6" y="-41.9" font-family="Times,serif" font-size="12.00">2</text>
</g>
<!-- 1&#45;&gt;2 -->
<g id="edge4" class="edge">
<title>1&#45;&gt;2</title>
<path fill="none" stroke="black" d="M182.95,-45C198.95,-45 223.08,-45 242.42,-45"/>
<polygon fill="black" stroke="black" points="242.59,-48.5 252.59,-45 242.59,-41.5 242.59,-48.5"/>
<text text-anchor="middle" x="217.6" y="-48.8" font-family="Times,serif" font-size="14.00">[1,0]</text>
</g>
<!-- qi -->
<g id="node4" class="node">
<title>qi</title>
<ellipse fill="black" stroke="black" cx="1.8" cy="-45" rx="1.8" ry="1.8"/>
</g>
<!-- qi&#45;&gt;0 -->
<g id="edge1" class="edge">
<title>qi&#45;&gt;0</title>
<path fill="none" stroke="black" d="M3.75,-45C7.11,-45 18.87,-45 30.55,-45"/>
<polygon fill="black" stroke="black" points="30.58,-48.5 40.58,-45 30.58,-41.5 30.58,-48.5"/>
</g>
</g>
</svg>
