<?xml version="1.0" encoding="UTF-8" standalone="no"?>
<!DOCTYPE svg PUBLIC "-//W3C//DTD SVG 1.1//EN"
 "http://www.w3.org/Graphics/SVG/1.1/DTD/svg11.dtd">
<!-- Generated by graphviz version 2.43.0 (0)
 -->
<!-- Title: G Pages: 1 -->
<svg width="257pt" height="122pt"
 viewBox="0.00 0.00 256.60 121.80" xmlns="http://www.w3.org/2000/svg" xmlns:xlink="http://www.w3.org/1999/xlink">
<g id="graph0" class="graph" transform="scale(1 1) rotate(0) translate(4 117.8)">
<title>G</title>
<polygon fill="white" stroke="transparent" points="-4,4 -4,-117.8 252.6,-117.8 252.6,4 -4,4"/>
<text text-anchor="middle" x="124.3" y="-7.8" font-family="Times,serif" font-size="14.00">Eb a=1 &amp; b=2</text>
<!-- 0 -->
<g id="node1" class="node">
<title>0</title>
<ellipse fill="none" stroke="black" cx="58.6" cy="-41" rx="18" ry="18"/>
<text text-anchor="middle" x="58.6" y="-37.9" font-family="Times,serif" font-size="12.00">0</text>
</g>
<!-- 0&#45;&gt;0 -->
<g id="edge3" class="edge">
<title>0&#45;&gt;0</title>
<path fill="none" stroke="black" d="M52.22,-58.04C50.92,-67.86 53.05,-77 58.6,-77 62.07,-77 64.2,-73.43 65,-68.35"/>
<polygon fill="black" stroke="black" points="68.5,-68.03 64.98,-58.04 61.5,-68.04 68.5,-68.03"/>
<text text-anchor="middle" x="58.6" y="-80.8" font-family="Times,serif" font-size="14.00">0</text>
</g>
<!-- 1 -->
<g id="node2" class="node">
<title>1</title>
<ellipse fill="none" stroke="black" cx="140.6" cy="-77" rx="18" ry="18"/>
<text text-anchor="middle" x="140.6" y="-73.9" font-family="Times,serif" font-size="12.00">1</text>
</g>
<!-- 0&#45;&gt;1 -->
<g id="edge4" class="edge">
<title>0&#45;&gt;1</title>
<path fill="none" stroke="black" d="M75.41,-48.11C86.58,-53.14 101.79,-59.99 114.61,-65.75"/>
<polygon fill="black" stroke="black" points="113.27,-68.99 123.83,-69.9 116.14,-62.61 113.27,-68.99"/>
<text text-anchor="middle" x="99.6" y="-65.8" font-family="Times,serif" font-size="14.00">0</text>
</g>
<!-- 2 -->
<g id="node3" class="node">
<title>2</title>
<ellipse fill="none" stroke="black" cx="226.6" cy="-77" rx="18" ry="18"/>
<ellipse fill="none" stroke="black" cx="226.6" cy="-77" rx="22" ry="22"/>
<text text-anchor="middle" x="226.6" y="-73.9" font-family="Times,serif" font-size="12.00">2</text>
</g>
<!-- 1&#45;&gt;2 -->
<g id="edge5" class="edge">
<title>1&#45;&gt;2</title>
<path fill="none" stroke="black" d="M159,-77C169.19,-77 182.35,-77 194.28,-77"/>
<polygon fill="black" stroke="black" points="194.34,-80.5 204.34,-77 194.34,-73.5 194.34,-80.5"/>
<text text-anchor="middle" x="181.6" y="-80.8" font-family="Times,serif" font-size="14.00">1</text>
</g>
<!-- qi -->
<g id="node4" class="node">
<title>qi</title>
<ellipse fill="black" stroke="black" cx="1.8" cy="-41" rx="1.8" ry="1.8"/>
</g>
<!-- qi&#45;&gt;0 -->
<g id="edge1" class="edge">
<title>qi&#45;&gt;0</title>
<path fill="none" stroke="black" d="M3.75,-41C7.11,-41 18.87,-41 30.55,-41"/>
<polygon fill="black" stroke="black" points="30.58,-44.5 40.58,-41 30.58,-37.5 30.58,-44.5"/>
</g>
<!-- qj -->
<g id="node5" class="node">
<title>qj</title>
<ellipse fill="black" stroke="black" cx="58.6" cy="-112" rx="1.8" ry="1.8"/>
</g>
<!-- qj&#45;&gt;1 -->
<g id="edge2" class="edge">
<title>qj&#45;&gt;1</title>
<path fill="none" stroke="black" d="M60.5,-111.61C65.77,-109.3 93.22,-97.29 114.31,-88.06"/>
<polygon fill="black" stroke="black" points="115.99,-91.15 123.75,-83.94 113.18,-84.74 115.99,-91.15"/>
</g>
</g>
</svg>
