<?xml version="1.0" encoding="UTF-8" standalone="no"?>
<!DOCTYPE svg PUBLIC "-//W3C//DTD SVG 1.1//EN"
 "http://www.w3.org/Graphics/SVG/1.1/DTD/svg11.dtd">
<!-- Generated by graphviz version 2.43.0 (0)
 -->
<!-- Title: G Pages: 1 -->
<svg width="175pt" height="104pt"
 viewBox="0.00 0.00 174.60 104.00" xmlns="http://www.w3.org/2000/svg" xmlns:xlink="http://www.w3.org/1999/xlink">
<g id="graph0" class="graph" transform="scale(1 1) rotate(0) translate(4 100)">
<title>G</title>
<polygon fill="white" stroke="transparent" points="-4,4 -4,-100 170.6,-100 170.6,4 -4,4"/>
<text text-anchor="middle" x="83.3" y="-7.8" font-family="Times,serif" font-size="14.00">(a): a=1</text>
<!-- 0 -->
<g id="node1" class="node">
<title>0</title>
<ellipse fill="none" stroke="black" cx="58.6" cy="-45" rx="18" ry="18"/>
<text text-anchor="middle" x="58.6" y="-41.9" font-family="Times,serif" font-size="12.00">0</text>
</g>
<!-- 0&#45;&gt;0 -->
<g id="edge2" class="edge">
<title>0&#45;&gt;0</title>
<path fill="none" stroke="black" d="M52.22,-62.04C50.92,-71.86 53.05,-81 58.6,-81 62.07,-81 64.2,-77.43 65,-72.35"/>
<polygon fill="black" stroke="black" points="68.5,-72.03 64.98,-62.04 61.5,-72.04 68.5,-72.03"/>
<text text-anchor="middle" x="58.6" y="-84.8" font-family="Times,serif" font-size="14.00">0</text>
</g>
<!-- 1 -->
<g id="node2" class="node">
<title>1</title>
<ellipse fill="none" stroke="black" cx="144.6" cy="-45" rx="18" ry="18"/>
<ellipse fill="none" stroke="black" cx="144.6" cy="-45" rx="22" ry="22"/>
<text text-anchor="middle" x="144.6" y="-41.9" font-family="Times,serif" font-size="12.00">1</text>
</g>
<!-- 0&#45;&gt;1 -->
<g id="edge3" class="edge">
<title>0&#45;&gt;1</title>
<path fill="none" stroke="black" d="M77,-45C87.19,-45 100.35,-45 112.28,-45"/>
<polygon fill="black" stroke="black" points="112.34,-48.5 122.34,-45 112.34,-41.5 112.34,-48.5"/>
<text text-anchor="middle" x="99.6" y="-48.8" font-family="Times,serif" font-size="14.00">1</text>
</g>
<!-- qi -->
<g id="node3" class="node">
<title>qi</title>
<ellipse fill="black" stroke="black" cx="1.8" cy="-45" rx="1.8" ry="1.8"/>
</g>
<!-- qi&#45;&gt;0 -->
<g id="edge1" class="edge">
<title>qi&#45;&gt;0</title>
<path fill="none" stroke="black" d="M3.75,-45C7.11,-45 18.87,-45 30.55,-45"/>
<polygon fill="black" stroke="black" points="30.58,-48.5 40.58,-45 30.58,-41.5 30.58,-48.5"/>
</g>
</g>
</svg>
