<?xml version="1.0" encoding="UTF-8" standalone="no"?>
<!DOCTYPE svg PUBLIC "-//W3C//DTD SVG 1.1//EN"
 "http://www.w3.org/Graphics/SVG/1.1/DTD/svg11.dtd">
<!-- Generated by graphviz version 2.43.0 (0)
 -->
<!-- Title: G Pages: 1 -->
<svg width="359pt" height="271pt"
 viewBox="0.00 0.00 359.11 271.17" xmlns="http://www.w3.org/2000/svg" xmlns:xlink="http://www.w3.org/1999/xlink">
<g id="graph0" class="graph" transform="scale(1 1) rotate(0) translate(4 267.17)">
<title>G</title>
<polygon fill="white" stroke="transparent" points="-4,4 -4,-267.17 355.11,-267.17 355.11,4 -4,4"/>
<text text-anchor="middle" x="175.56" y="-7.8" font-family="Times,serif" font-size="14.00">(a): a=1 x (b): b=2</text>
<!-- 0 -->
<g id="node1" class="node">
<title>0</title>
<ellipse fill="none" stroke="black" cx="67.69" cy="-122.09" rx="27.17" ry="27.17"/>
<text text-anchor="middle" x="67.69" y="-118.99" font-family="Times,serif" font-size="12.00">(0,0)</text>
</g>
<!-- 0&#45;&gt;0 -->
<g id="edge2" class="edge">
<title>0&#45;&gt;0</title>
<path fill="none" stroke="black" d="M59.49,-148.03C59.02,-158.44 61.76,-167.17 67.69,-167.17 71.48,-167.17 73.97,-163.59 75.15,-158.27"/>
<polygon fill="black" stroke="black" points="78.66,-158.26 75.89,-148.03 71.67,-157.75 78.66,-158.26"/>
<text text-anchor="middle" x="67.69" y="-170.97" font-family="Times,serif" font-size="14.00">[0,0]</text>
</g>
<!-- 1 -->
<g id="node2" class="node">
<title>1</title>
<ellipse fill="none" stroke="black" cx="191.86" cy="-194.09" rx="27.17" ry="27.17"/>
<text text-anchor="middle" x="191.86" y="-190.99" font-family="Times,serif" font-size="12.00">(0,1)</text>
</g>
<!-- 0&#45;&gt;1 -->
<g id="edge3" class="edge">
<title>0&#45;&gt;1</title>
<path fill="none" stroke="black" d="M91.38,-135.46C110.46,-146.7 137.94,-162.9 159.19,-175.42"/>
<polygon fill="black" stroke="black" points="157.48,-178.48 167.87,-180.54 161.03,-172.45 157.48,-178.48"/>
<text text-anchor="middle" x="129.77" y="-170.89" font-family="Times,serif" font-size="14.00">[0,1]</text>
</g>
<!-- 2 -->
<g id="node3" class="node">
<title>2</title>
<ellipse fill="none" stroke="black" cx="191.86" cy="-122.09" rx="27.17" ry="27.17"/>
<text text-anchor="middle" x="191.86" y="-118.99" font-family="Times,serif" font-size="12.00">(1,1)</text>
</g>
<!-- 0&#45;&gt;2 -->
<g id="edge4" class="edge">
<title>0&#45;&gt;2</title>
<path fill="none" stroke="black" d="M94.89,-122.09C112.29,-122.09 135.35,-122.09 154.51,-122.09"/>
<polygon fill="black" stroke="black" points="154.69,-125.59 164.69,-122.09 154.69,-118.59 154.69,-125.59"/>
<text text-anchor="middle" x="129.77" y="-125.89" font-family="Times,serif" font-size="14.00">[1,1]</text>
</g>
<!-- 3 -->
<g id="node4" class="node">
<title>3</title>
<ellipse fill="none" stroke="black" cx="191.86" cy="-50.09" rx="27.17" ry="27.17"/>
<text text-anchor="middle" x="191.86" y="-46.99" font-family="Times,serif" font-size="12.00">(1,0)</text>
</g>
<!-- 0&#45;&gt;3 -->
<g id="edge5" class="edge">
<title>0&#45;&gt;3</title>
<path fill="none" stroke="black" d="M91.38,-108.71C110.46,-97.47 137.94,-81.27 159.19,-68.75"/>
<polygon fill="black" stroke="black" points="161.03,-71.73 167.87,-63.63 157.48,-65.69 161.03,-71.73"/>
<text text-anchor="middle" x="129.77" y="-98.89" font-family="Times,serif" font-size="14.00">[1,0]</text>
</g>
<!-- 4 -->
<g id="node5" class="node">
<title>4</title>
<ellipse fill="none" stroke="black" cx="320.03" cy="-232.09" rx="27.16" ry="27.16"/>
<ellipse fill="none" stroke="black" cx="320.03" cy="-232.09" rx="31.17" ry="31.17"/>
<text text-anchor="middle" x="320.03" y="-228.99" font-family="Times,serif" font-size="12.00">(1,2)</text>
</g>
<!-- 1&#45;&gt;4 -->
<g id="edge6" class="edge">
<title>1&#45;&gt;4</title>
<path fill="none" stroke="black" d="M218.09,-201.68C235.8,-207.02 259.84,-214.26 280.02,-220.34"/>
<polygon fill="black" stroke="black" points="279.28,-223.77 289.86,-223.3 281.3,-217.07 279.28,-223.77"/>
<text text-anchor="middle" x="253.94" y="-220.89" font-family="Times,serif" font-size="14.00">[1,0]</text>
</g>
<!-- 5 -->
<g id="node6" class="node">
<title>5</title>
<ellipse fill="none" stroke="black" cx="320.03" cy="-156.09" rx="27.17" ry="27.17"/>
<text text-anchor="middle" x="320.03" y="-152.99" font-family="Times,serif" font-size="12.00">(0,2)</text>
</g>
<!-- 1&#45;&gt;5 -->
<g id="edge7" class="edge">
<title>1&#45;&gt;5</title>
<path fill="none" stroke="black" d="M218.09,-186.49C237,-180.79 263.11,-172.93 284.04,-166.62"/>
<polygon fill="black" stroke="black" points="285.28,-169.91 293.84,-163.67 283.26,-163.2 285.28,-169.91"/>
<text text-anchor="middle" x="253.94" y="-184.89" font-family="Times,serif" font-size="14.00">[0,0]</text>
</g>
<!-- qi -->
<g id="node7" class="node">
<title>qi</title>
<ellipse fill="black" stroke="black" cx="1.8" cy="-122.09" rx="1.8" ry="1.8"/>
</g>
<!-- qi&#45;&gt;0 -->
<g id="edge1" class="edge">
<title>qi&#45;&gt;0</title>
<path fill="none" stroke="black" d="M3.91,-122.09C7.38,-122.09 18.51,-122.09 30.45,-122.09"/>
<polygon fill="black" stroke="black" points="30.53,-125.59 40.53,-122.09 30.53,-118.59 30.53,-125.59"/>
</g>
</g>
</svg>
